<?xml version="1.0" standalone="no"?>
<!DOCTYPE svg PUBLIC "-//W3C//DTD SVG 20010904//EN"
 "http://www.w3.org/TR/2001/REC-SVG-20010904/DTD/svg10.dtd">
<svg version="1.0" xmlns="http://www.w3.org/2000/svg"
 width="1280.000000pt" height="720.000000pt" viewBox="0 0 1280.000000 720.000000"
 preserveAspectRatio="xMidYMid meet">
<metadata>
Created by potrace 1.15, written by Peter Selinger 2001-2017
</metadata>
<g transform="translate(0.000000,720.000000) scale(0.100000,-0.100000)"
fill="#000000" stroke="none">
<path d="M0 3600 l0 -3600 6400 0 6400 0 0 3600 0 3600 -6400 0 -6400 0 0
-3600z m928 1373 l27 -20 3 -1267 2 -1266 533 0 c611 0 559 9 579 -98 8 -44 8
-78 0 -127 -19 -116 56 -105 -721 -105 -652 0 -677 1 -708 20 -18 10 -40 31
-50 47 -17 26 -18 96 -21 1404 -2 1321 -2 1377 16 1399 25 30 76 39 205 36 90
-2 112 -6 135 -23z m2696 14 c21 -7 47 -23 57 -37 11 -14 240 -637 511 -1385
527 -1458 522 -1444 468 -1472 -18 -10 -66 -13 -178 -11 -151 3 -154 3 -175
28 -12 15 -77 184 -147 383 l-125 357 -605 -3 -604 -2 -102 -300 c-155 -454
-144 -427 -184 -447 -44 -22 -269 -26 -310 -5 -53 27 -52 33 368 1192 214 594
434 1202 487 1350 54 149 103 282 111 296 18 36 39 51 82 60 60 11 303 9 346
-4z m2102 -26 c58 -25 113 -78 142 -136 12 -22 208 -514 436 -1093 229 -580
420 -1061 425 -1070 8 -15 11 -14 19 8 106 275 893 2160 918 2197 67 103 128
123 368 123 138 0 156 -2 196 -22 26 -14 53 -37 65 -58 20 -35 20 -51 23
-1396 1 -862 -1 -1371 -7 -1387 -14 -35 -62 -47 -192 -47 -114 0 -164 11 -179
40 -6 12 -10 479 -10 1287 l-1 1268 -33 -80 c-19 -44 -219 -541 -446 -1105
-614 -1524 -549 -1372 -590 -1392 -27 -14 -60 -18 -145 -18 -172 0 -162 -9
-262 250 -45 118 -266 691 -490 1273 l-408 1059 -5 -1269 c-3 -697 -9 -1273
-13 -1280 -14 -21 -79 -33 -182 -33 -114 0 -170 12 -185 40 -7 13 -10 461 -8
1387 3 1261 4 1370 20 1399 41 75 80 85 308 81 165 -3 190 -6 236 -26z m3920
0 c58 -25 113 -78 142 -136 12 -22 208 -514 436 -1093 229 -580 420 -1061 425
-1070 8 -15 11 -14 19 8 106 275 893 2160 918 2197 67 103 128 123 368 123
138 0 156 -2 196 -22 26 -14 53 -37 65 -58 20 -35 20 -51 23 -1396 1 -862 -1
-1371 -7 -1387 -14 -35 -62 -47 -192 -47 -114 0 -164 11 -179 40 -6 12 -10
479 -10 1287 l-1 1268 -33 -80 c-19 -44 -219 -541 -446 -1105 -614 -1524 -549
-1372 -590 -1392 -27 -14 -60 -18 -145 -18 -172 0 -162 -9 -262 250 -45 118
-266 691 -490 1273 l-408 1059 -5 -1269 c-3 -697 -9 -1273 -13 -1280 -14 -21
-79 -33 -182 -33 -114 0 -170 12 -185 40 -7 13 -10 461 -8 1387 3 1261 4 1370
20 1399 41 75 80 85 308 81 165 -3 190 -6 236 -26z"/>
<path d="M3270 4158 c-84 -244 -195 -564 -246 -713 -52 -148 -94 -273 -94
-277 0 -5 225 -8 500 -8 275 0 500 2 500 4 0 6 -500 1430 -504 1433 -1 2 -72
-196 -156 -439z"/>
</g>
</svg>
